<?xml version="1.0" encoding="utf-8"?>
<!-- Generator: Adobe Illustrator 22.0.1, SVG Export Plug-In . SVG Version: 6.00 Build 0)  -->
<svg version="1.1" id="图层_1" xmlns="http://www.w3.org/2000/svg" xmlns:xlink="http://www.w3.org/1999/xlink" x="0px" y="0px"
	 viewBox="0 0 33 33" style="enable-background:new 0 0 33 33;" xml:space="preserve">
<style type="text/css">
	.st0{fill-rule:evenodd;clip-rule:evenodd;fill:#09BB07;}
</style>
<path class="st0" d="M16.5,10.3c1.1,0,2.1-0.9,2.1-2.1s-0.9-2.1-2.1-2.1s-2.1,0.9-2.1,2.1S15.4,10.3,16.5,10.3z M13.4,12.4v1h2.1
	v11.3h-2.1v1h7.2v-1h-2.1V12.4H13.4z M16.5,30.9c8,0,14.4-6.5,14.4-14.4S24.5,2.1,16.5,2.1S2.1,8.5,2.1,16.5S8.5,30.9,16.5,30.9z
	 M17,33c8.6,0,16-7.4,16-16c0-9.6-7.4-17-16-17C7.4,0,0,7.4,0,17C0,25.6,7.4,33,17,33z"/>
</svg>
